# xmcd
#
# Track frame offsets:
#	150
#	15388
#	30618
#
# Disc length: 609 seconds
# Revision: 0
# Processed by: cddbd v1.5.2PL0 Copyright (c) Steve Scherf et al.
# Submitted via: dBpowerAMP V12.0
#
DISCID=15025f03
DTITLE=McHayes - Tulsa Time
DYEAR=2004
DGENRE=Bluegrass
TTITLE0=Tulsa Time
TTITLE1=Tulsa Time
TTITLE2=Tulsa Time
EXTD=
EXTT0=
EXTT1=
EXTT2=
PLAYORDER=
